<svg width="25" height="25" viewBox="0 0 25 25" fill="none" xmlns="http://www.w3.org/2000/svg">
<g id="bx:bx-plus">
<path id="Vector" d="M22.1343 12.2103C22.1343 11.4411 21.5108 10.8176 20.7416 10.8176H13.7784V3.85433C13.7784 3.08518 13.1548 2.46167 12.3857 2.46167C11.6165 2.46167 10.993 3.08518 10.993 3.85433V10.8176H4.02974C3.2606 10.8176 2.63708 11.4411 2.63708 12.2103C2.63708 12.9794 3.2606 13.6029 4.02974 13.6029H10.993V20.5662C10.993 21.3354 11.6165 21.9589 12.3857 21.9589C13.1548 21.9589 13.7784 21.3354 13.7784 20.5662V13.6029H20.7416C21.5108 13.6029 22.1343 12.9794 22.1343 12.2103Z" fill="white"/>
</g>
</svg>
