<svg width="19" height="19" viewBox="0 0 19 19" fill="none" xmlns="http://www.w3.org/2000/svg">
<g id="Star">
<g id="Iconly/Bold/Star">
<g id="Star_2">
<path id="Vector" d="M13.9727 10.9081C13.7754 11.0992 13.6848 11.3757 13.7297 11.6468L14.4068 15.394C14.4639 15.7116 14.3299 16.033 14.0641 16.2165C13.8036 16.4069 13.4571 16.4298 13.173 16.2775L9.79981 14.5181C9.68252 14.4557 9.55228 14.4222 9.419 14.4184H9.21261C9.14101 14.429 9.07095 14.4519 9.00697 14.4869L5.63304 16.2546C5.46625 16.3384 5.27737 16.3681 5.0923 16.3384C4.64142 16.2531 4.34059 15.8236 4.41446 15.3704L5.0923 11.6232C5.13723 11.3498 5.0466 11.0718 4.84934 10.8776L2.09917 8.21195C1.86916 7.9888 1.78919 7.65369 1.8943 7.35132C1.99635 7.04972 2.25682 6.82962 2.57137 6.78011L6.35657 6.23098C6.64446 6.20128 6.89731 6.02611 7.02678 5.76716L8.69471 2.3475C8.73431 2.27134 8.78534 2.20127 8.84703 2.14186L8.91558 2.08855C8.95137 2.04895 8.9925 2.0162 9.0382 1.98954L9.12121 1.95907L9.25069 1.90576H9.57132C9.85769 1.93546 10.1098 2.10683 10.2415 2.36273L11.9316 5.76716C12.0534 6.01621 12.2903 6.1891 12.5637 6.23098L16.3489 6.78011C16.6688 6.82581 16.9361 7.04668 17.042 7.35132C17.1417 7.65673 17.0557 7.99184 16.8211 8.21195L13.9727 10.9081Z" fill="#F6B76F"/>
</g>
</g>
</g>
</svg>
